{"accessors" : [{"bufferView" : 0, "byteOffset" : 0, "componentType" : 5125, "count" : 70266, "type" : "SCALAR", "max" : [69641], "min" : [0]}, {"bufferView" : 1, "byteOffset" : 0, "componentType" : 5126, "count" : 69642, "type" : "VEC3", "max" : [212.9182586669922, 20, 32.393898010253906], "min" : [-210.5311279296875, -20, -45.94086837768555], "name" : "POSITION"}, {"bufferView" : 1, "byteOffset" : 12, "componentType" : 5126, "count" : 69642, "type" : "VEC3", "max" : [1.0000044107437134, 1.0000044107437134, 1.0000038146972656], "min" : [-1.0000044107437134, -1.0000044107437134, -0.9999983906745911], "name" : "NORMAL"}], "asset" : {"generator" : "Aspose.3D 22.7", "version" : "2.0"}, "buffers" : [{"uri" : "data:application/octet-stream;base64,", "byteLength" : 1967456}], "bufferViews" : [{"buffer" : 0, "byteOffset" : 0, "byteLength" : 281064, "target" : 34963}, {"buffer" : 0, "byteOffset" : 281068, "byteLength" : 1686384, "byteStride" : 24, "target" : 34962}], "meshes" : [{"primitives" : [{"attributes" : {"POSITION" : 1, "NORMAL" : 2}, "indices" : 0, "mode" : 4}], "name" : ""}], "nodes" : [{"mesh" : 0, "name" : ""}], "scene" : 0, "scenes" : [{"nodes" : [0]}]}