{
    "asset" : {
        "generator" : "Khronos glTF Blender I/O v1.6.16",
        "version" : "2.0"
    },
    "scene" : 0,
    "scenes" : [
        {
            "name" : "Scene",
            "nodes" : [
                0,
                1,
                2,
                3
            ]
        }
    ],
    "nodes" : [
        {
            "mesh" : 0,
            "name" : "hot bling",
            "rotation" : [
                0.7071068286895752,
                0,
                0,
                0.7071068286895752
            ],
            "scale" : [
                2,
                2,
                2
            ]
        },
        {
            "mesh" : 1,
            "name" : "owl",
            "translation" : [
                -6.0960001945495605,
                0,
                0
            ]
        },
        {
            "mesh" : 2,
            "name" : "white hat",
            "scale" : [
                4.420379161834717,
                4.420379161834717,
                4.420379161834717
            ],
            "translation" : [
                -3.0480000972747803,
                0.5172901153564453,
                0
            ]
        },
        {
            "mesh" : 3,
            "name" : "pocket knife",
            "rotation" : [
                0.7071068286895752,
                0,
                0,
                0.7071068286895752
            ],
            "translation" : [
                -9.144000053405762,
                0.958824872970581,
                0
            ]
        }
    ],
    "materials" : [
        {
            "doubleSided" : true,
            "name" : "Material",
            "pbrMetallicRoughness" : {
                "baseColorFactor" : [
                    0.800000011920929,
                    0.800000011920929,
                    0.800000011920929,
                    1
                ],
                "metallicFactor" : 0,
                "roughnessFactor" : 0.4000000059604645
            }
        }
    ],
    "meshes" : [
        {
            "name" : "Circle",
            "primitives" : [
                {
                    "attributes" : {
                        "POSITION" : 0,
                        "NORMAL" : 1,
                        "TEXCOORD_0" : 2
                    },
                    "indices" : 3
                }
            ]
        },
        {
            "name" : "Cube",
            "primitives" : [
                {
                    "attributes" : {
                        "POSITION" : 4,
                        "NORMAL" : 5,
                        "TEXCOORD_0" : 6
                    },
                    "indices" : 7,
                    "material" : 0
                }
            ]
        },
        {
            "name" : "Circle.001",
            "primitives" : [
                {
                    "attributes" : {
                        "POSITION" : 8,
                        "NORMAL" : 9,
                        "TEXCOORD_0" : 10
                    },
                    "indices" : 11
                }
            ]
        },
        {
            "name" : "Cylinder.001",
            "primitives" : [
                {
                    "attributes" : {
                        "POSITION" : 12,
                        "NORMAL" : 13,
                        "TEXCOORD_0" : 14
                    },
                    "indices" : 15
                }
            ]
        }
    ],
    "accessors" : [
        {
            "bufferView" : 0,
            "componentType" : 5126,
            "count" : 1174,
            "max" : [
                0.856048047542572,
                0.15240004658699036,
                1.3690516948699951
            ],
            "min" : [
                -0.7894553542137146,
                -7.450580596923828e-08,
                -1.2924619913101196
            ],
            "type" : "VEC3"
        },
        {
            "bufferView" : 1,
            "componentType" : 5126,
            "count" : 1174,
            "type" : "VEC3"
        },
        {
            "bufferView" : 2,
            "componentType" : 5126,
            "count" : 1174,
            "type" : "VEC2"
        },
        {
            "bufferView" : 3,
            "componentType" : 5123,
            "count" : 2592,
            "type" : "SCALAR"
        },
        {
            "bufferView" : 4,
            "componentType" : 5126,
            "count" : 2360,
            "max" : [
                1.2775973081588745,
                2.595494508743286,
                0.47849228978157043
            ],
            "min" : [
                -0.7451592087745667,
                -1.2669463157653809,
                -0.10888022184371948
            ],
            "type" : "VEC3"
        },
        {
            "bufferView" : 5,
            "componentType" : 5126,
            "count" : 2360,
            "type" : "VEC3"
        },
        {
            "bufferView" : 6,
            "componentType" : 5126,
            "count" : 2360,
            "type" : "VEC2"
        },
        {
            "bufferView" : 7,
            "componentType" : 5123,
            "count" : 3741,
            "type" : "SCALAR"
        },
        {
            "bufferView" : 8,
            "componentType" : 5126,
            "count" : 4204,
            "max" : [
                0.28010526299476624,
                0.45222562551498413,
                0.4041111171245575
            ],
            "min" : [
                -0.28010526299476624,
                -0.221351757645607,
                -0.21789997816085815
            ],
            "type" : "VEC3"
        },
        {
            "bufferView" : 9,
            "componentType" : 5126,
            "count" : 4204,
            "type" : "VEC3"
        },
        {
            "bufferView" : 10,
            "componentType" : 5126,
            "count" : 4204,
            "type" : "VEC2"
        },
        {
            "bufferView" : 11,
            "componentType" : 5123,
            "count" : 14730,
            "type" : "SCALAR"
        },
        {
            "bufferView" : 12,
            "componentType" : 5126,
            "count" : 6918,
            "max" : [
                0.7355434894561768,
                0.23375700414180756,
                2.391204833984375
            ],
            "min" : [
                -0.7355434894561768,
                -0.2337571084499359,
                -1.607891321182251
            ],
            "type" : "VEC3"
        },
        {
            "bufferView" : 13,
            "componentType" : 5126,
            "count" : 6918,
            "type" : "VEC3"
        },
        {
            "bufferView" : 14,
            "componentType" : 5126,
            "count" : 6918,
            "type" : "VEC2"
        },
        {
            "bufferView" : 15,
            "componentType" : 5123,
            "count" : 27120,
            "type" : "SCALAR"
        }
    ],
    "bufferViews" : [
        {
            "buffer" : 0,
            "byteLength" : 14088,
            "byteOffset" : 0
        },
        {
            "buffer" : 0,
            "byteLength" : 14088,
            "byteOffset" : 14088
        },
        {
            "buffer" : 0,
            "byteLength" : 9392,
            "byteOffset" : 28176
        },
        {
            "buffer" : 0,
            "byteLength" : 5184,
            "byteOffset" : 37568
        },
        {
            "buffer" : 0,
            "byteLength" : 28320,
            "byteOffset" : 42752
        },
        {
            "buffer" : 0,
            "byteLength" : 28320,
            "byteOffset" : 71072
        },
        {
            "buffer" : 0,
            "byteLength" : 18880,
            "byteOffset" : 99392
        },
        {
            "buffer" : 0,
            "byteLength" : 7482,
            "byteOffset" : 118272
        },
        {
            "buffer" : 0,
            "byteLength" : 50448,
            "byteOffset" : 125756
        },
        {
            "buffer" : 0,
            "byteLength" : 50448,
            "byteOffset" : 176204
        },
        {
            "buffer" : 0,
            "byteLength" : 33632,
            "byteOffset" : 226652
        },
        {
            "buffer" : 0,
            "byteLength" : 29460,
            "byteOffset" : 260284
        },
        {
            "buffer" : 0,
            "byteLength" : 83016,
            "byteOffset" : 289744
        },
        {
            "buffer" : 0,
            "byteLength" : 83016,
            "byteOffset" : 372760
        },
        {
            "buffer" : 0,
            "byteLength" : 55344,
            "byteOffset" : 455776
        },
        {
            "buffer" : 0,
            "byteLength" : 54240,
            "byteOffset" : 511120
        }
    ],
    "buffers" : [
        {
            "byteLength" : 565360,
            "uri" : "data:application/octet-stream;base64,"
        }
    ]
}
