{
    "asset" : {
        "generator" : "Khronos glTF Blender I/O v1.6.16",
        "version" : "2.0"
    },
    "scene" : 0,
    "scenes" : [
        {
            "name" : "Scene",
            "nodes" : [
                0,
                1,
                2,
                3,
                4,
                5,
                6,
                7,
                8,
                9
            ]
        }
    ],
    "nodes" : [
        {
            "mesh" : 0,
            "name" : "hot bling",
            "rotation" : [
                0.7071068286895752,
                0,
                0,
                0.7071068286895752
            ],
            "scale" : [
                2,
                2,
                2
            ]
        },
        {
            "mesh" : 1,
            "name" : "owl",
            "translation" : [
                -3.0480000972747803,
                0,
                0
            ]
        },
        {
            "mesh" : 2,
            "name" : "white hat",
            "scale" : [
                4.420379161834717,
                4.420379161834717,
                4.420379161834717
            ],
            "translation" : [
                -6.0960001945495605,
                0.5172901153564453,
                0
            ]
        },
        {
            "mesh" : 3,
            "name" : "pocket knife",
            "rotation" : [
                0.7071068286895752,
                0,
                0,
                0.7071068286895752
            ],
            "translation" : [
                -9.144000053405762,
                0.958824872970581,
                0
            ]
        },
        {
            "mesh" : 4,
            "name" : "white hat.001",
            "scale" : [
                4.420379161834717,
                4.420379161834717,
                4.420379161834717
            ],
            "translation" : [
                -6.0960001945495605,
                0.5172901153564453,
                0
            ]
        },
        {
            "mesh" : 5,
            "name" : "white hat.002",
            "scale" : [
                4.420379161834717,
                4.420379161834717,
                4.420379161834717
            ],
            "translation" : [
                -6.0960001945495605,
                0.5172901153564453,
                0
            ]
        },
        {
            "mesh" : 6,
            "name" : "white hat.003",
            "scale" : [
                4.420379161834717,
                4.420379161834717,
                4.420379161834717
            ],
            "translation" : [
                -6.0960001945495605,
                0.5172901153564453,
                0
            ]
        },
        {
            "mesh" : 7,
            "name" : "white hat.004",
            "scale" : [
                4.420379161834717,
                4.420379161834717,
                4.420379161834717
            ],
            "translation" : [
                -6.0960001945495605,
                0.5172901153564453,
                0
            ]
        },
        {
            "mesh" : 8,
            "name" : "white hat.005",
            "scale" : [
                4.420379161834717,
                4.420379161834717,
                4.420379161834717
            ],
            "translation" : [
                -6.0960001945495605,
                0.5172901153564453,
                0
            ]
        },
        {
            "mesh" : 9,
            "name" : "white hat.006",
            "scale" : [
                4.420379161834717,
                4.420379161834717,
                4.420379161834717
            ],
            "translation" : [
                -6.0960001945495605,
                0.5172901153564453,
                0
            ]
        }
    ],
    "materials" : [
        {
            "doubleSided" : true,
            "name" : "Material",
            "pbrMetallicRoughness" : {
                "baseColorFactor" : [
                    0.800000011920929,
                    0.800000011920929,
                    0.800000011920929,
                    1
                ],
                "metallicFactor" : 0,
                "roughnessFactor" : 0.4000000059604645
            }
        }
    ],
    "meshes" : [
        {
            "name" : "Circle",
            "primitives" : [
                {
                    "attributes" : {
                        "POSITION" : 0,
                        "NORMAL" : 1,
                        "TEXCOORD_0" : 2
                    },
                    "indices" : 3
                }
            ]
        },
        {
            "name" : "Cube",
            "primitives" : [
                {
                    "attributes" : {
                        "POSITION" : 4,
                        "NORMAL" : 5,
                        "TEXCOORD_0" : 6
                    },
                    "indices" : 7,
                    "material" : 0
                }
            ]
        },
        {
            "name" : "Circle.001",
            "primitives" : [
                {
                    "attributes" : {
                        "POSITION" : 8,
                        "NORMAL" : 9,
                        "TEXCOORD_0" : 10
                    },
                    "indices" : 11
                }
            ]
        },
        {
            "name" : "Cylinder.001",
            "primitives" : [
                {
                    "attributes" : {
                        "POSITION" : 12,
                        "NORMAL" : 13,
                        "TEXCOORD_0" : 14
                    },
                    "indices" : 15
                }
            ]
        },
        {
            "name" : "Circle.002",
            "primitives" : [
                {
                    "attributes" : {
                        "POSITION" : 16,
                        "NORMAL" : 17,
                        "TEXCOORD_0" : 18
                    },
                    "indices" : 19
                }
            ]
        },
        {
            "name" : "Circle.003",
            "primitives" : [
                {
                    "attributes" : {
                        "POSITION" : 20,
                        "NORMAL" : 21,
                        "TEXCOORD_0" : 22
                    },
                    "indices" : 23
                }
            ]
        },
        {
            "name" : "Circle.004",
            "primitives" : [
                {
                    "attributes" : {
                        "POSITION" : 24,
                        "NORMAL" : 25,
                        "TEXCOORD_0" : 26
                    },
                    "indices" : 27
                }
            ]
        },
        {
            "name" : "Circle.005",
            "primitives" : [
                {
                    "attributes" : {
                        "POSITION" : 28,
                        "NORMAL" : 29,
                        "TEXCOORD_0" : 30
                    },
                    "indices" : 31
                }
            ]
        },
        {
            "name" : "Circle.006",
            "primitives" : [
                {
                    "attributes" : {
                        "POSITION" : 32,
                        "NORMAL" : 33,
                        "TEXCOORD_0" : 34
                    },
                    "indices" : 35
                }
            ]
        },
        {
            "name" : "Circle.007",
            "primitives" : [
                {
                    "attributes" : {
                        "POSITION" : 36,
                        "NORMAL" : 37,
                        "TEXCOORD_0" : 38
                    },
                    "indices" : 39
                }
            ]
        }
    ],
    "accessors" : [
        {
            "bufferView" : 0,
            "componentType" : 5126,
            "count" : 1174,
            "max" : [
                0.856048047542572,
                0.15240004658699036,
                1.3690516948699951
            ],
            "min" : [
                -0.7894553542137146,
                -7.450580596923828e-08,
                -1.2924619913101196
            ],
            "type" : "VEC3"
        },
        {
            "bufferView" : 1,
            "componentType" : 5126,
            "count" : 1174,
            "type" : "VEC3"
        },
        {
            "bufferView" : 2,
            "componentType" : 5126,
            "count" : 1174,
            "type" : "VEC2"
        },
        {
            "bufferView" : 3,
            "componentType" : 5123,
            "count" : 2592,
            "type" : "SCALAR"
        },
        {
            "bufferView" : 4,
            "componentType" : 5126,
            "count" : 4694,
            "max" : [
                1.2775973081588745,
                2.595494508743286,
                0.47849228978157043
            ],
            "min" : [
                -1.2775973081588745,
                -1.2669463157653809,
                -0.10888022184371948
            ],
            "type" : "VEC3"
        },
        {
            "bufferView" : 5,
            "componentType" : 5126,
            "count" : 4694,
            "type" : "VEC3"
        },
        {
            "bufferView" : 6,
            "componentType" : 5126,
            "count" : 4694,
            "type" : "VEC2"
        },
        {
            "bufferView" : 7,
            "componentType" : 5123,
            "count" : 7476,
            "type" : "SCALAR"
        },
        {
            "bufferView" : 8,
            "componentType" : 5126,
            "count" : 7015,
            "max" : [
                0.280105859041214,
                -0.01444387435913086,
                0.4041111171245575
            ],
            "min" : [
                -0.2801046669483185,
                -0.221351757645607,
                -0.21789997816085815
            ],
            "type" : "VEC3"
        },
        {
            "bufferView" : 9,
            "componentType" : 5126,
            "count" : 7015,
            "type" : "VEC3"
        },
        {
            "bufferView" : 10,
            "componentType" : 5126,
            "count" : 7015,
            "type" : "VEC2"
        },
        {
            "bufferView" : 11,
            "componentType" : 5123,
            "count" : 21726,
            "type" : "SCALAR"
        },
        {
            "bufferView" : 12,
            "componentType" : 5126,
            "count" : 6918,
            "max" : [
                0.7355434894561768,
                0.23375700414180756,
                2.391204833984375
            ],
            "min" : [
                -0.7355434894561768,
                -0.2337571084499359,
                -1.607891321182251
            ],
            "type" : "VEC3"
        },
        {
            "bufferView" : 13,
            "componentType" : 5126,
            "count" : 6918,
            "type" : "VEC3"
        },
        {
            "bufferView" : 14,
            "componentType" : 5126,
            "count" : 6918,
            "type" : "VEC2"
        },
        {
            "bufferView" : 15,
            "componentType" : 5123,
            "count" : 27120,
            "type" : "SCALAR"
        },
        {
            "bufferView" : 16,
            "componentType" : 5126,
            "count" : 130,
            "max" : [
                0.059959858655929565,
                -0.0837729200720787,
                0.22279125452041626
            ],
            "min" : [
                -0.05995986610651016,
                -0.17166203260421753,
                0.17249047756195068
            ],
            "type" : "VEC3"
        },
        {
            "bufferView" : 17,
            "componentType" : 5126,
            "count" : 130,
            "type" : "VEC3"
        },
        {
            "bufferView" : 18,
            "componentType" : 5126,
            "count" : 130,
            "type" : "VEC2"
        },
        {
            "bufferView" : 19,
            "componentType" : 5123,
            "count" : 192,
            "type" : "SCALAR"
        },
        {
            "bufferView" : 20,
            "componentType" : 5126,
            "count" : 18,
            "max" : [
                0.09082384407520294,
                -0.10150203853845596,
                0.1826784610748291
            ],
            "min" : [
                0.035801395773887634,
                -0.12623539566993713,
                0.15530675649642944
            ],
            "type" : "VEC3"
        },
        {
            "bufferView" : 21,
            "componentType" : 5126,
            "count" : 18,
            "type" : "VEC3"
        },
        {
            "bufferView" : 22,
            "componentType" : 5126,
            "count" : 18,
            "type" : "VEC2"
        },
        {
            "bufferView" : 23,
            "componentType" : 5123,
            "count" : 24,
            "type" : "SCALAR"
        },
        {
            "bufferView" : 24,
            "componentType" : 5126,
            "count" : 1188,
            "max" : [
                0.05349016189575195,
                -0.09437810629606247,
                0.2198694348335266
            ],
            "min" : [
                -0.05349016934633255,
                -0.1659441441297531,
                0.17354968190193176
            ],
            "type" : "VEC3"
        },
        {
            "bufferView" : 25,
            "componentType" : 5126,
            "count" : 1188,
            "type" : "VEC3"
        },
        {
            "bufferView" : 26,
            "componentType" : 5126,
            "count" : 1188,
            "type" : "VEC2"
        },
        {
            "bufferView" : 27,
            "componentType" : 5123,
            "count" : 5712,
            "type" : "SCALAR"
        },
        {
            "bufferView" : 28,
            "componentType" : 5126,
            "count" : 18,
            "max" : [
                -0.03580140322446823,
                -0.10150203853845596,
                0.1826784610748291
            ],
            "min" : [
                -0.09082385897636414,
                -0.12623539566993713,
                0.15530675649642944
            ],
            "type" : "VEC3"
        },
        {
            "bufferView" : 29,
            "componentType" : 5126,
            "count" : 18,
            "type" : "VEC3"
        },
        {
            "bufferView" : 30,
            "componentType" : 5126,
            "count" : 18,
            "type" : "VEC2"
        },
        {
            "bufferView" : 31,
            "componentType" : 5123,
            "count" : 24,
            "type" : "SCALAR"
        },
        {
            "bufferView" : 32,
            "componentType" : 5126,
            "count" : 593,
            "max" : [
                0.06809712946414948,
                0.34990447759628296,
                0.06809715926647186
            ],
            "min" : [
                -0.06809714436531067,
                -0.02872183918952942,
                -0.06809711456298828
            ],
            "type" : "VEC3"
        },
        {
            "bufferView" : 33,
            "componentType" : 5126,
            "count" : 593,
            "type" : "VEC3"
        },
        {
            "bufferView" : 34,
            "componentType" : 5126,
            "count" : 593,
            "type" : "VEC2"
        },
        {
            "bufferView" : 35,
            "componentType" : 5123,
            "count" : 1524,
            "type" : "SCALAR"
        },
        {
            "bufferView" : 36,
            "componentType" : 5126,
            "count" : 360,
            "max" : [
                0.06117043271660805,
                0.45222562551498413,
                0.022550776600837708
            ],
            "min" : [
                -0.061170440167188644,
                0.31659257411956787,
                -0.022550903260707855
            ],
            "type" : "VEC3"
        },
        {
            "bufferView" : 37,
            "componentType" : 5126,
            "count" : 360,
            "type" : "VEC3"
        },
        {
            "bufferView" : 38,
            "componentType" : 5126,
            "count" : 360,
            "type" : "VEC2"
        },
        {
            "bufferView" : 39,
            "componentType" : 5123,
            "count" : 1170,
            "type" : "SCALAR"
        }
    ],
    "bufferViews" : [
        {
            "buffer" : 0,
            "byteLength" : 14088,
            "byteOffset" : 0
        },
        {
            "buffer" : 0,
            "byteLength" : 14088,
            "byteOffset" : 14088
        },
        {
            "buffer" : 0,
            "byteLength" : 9392,
            "byteOffset" : 28176
        },
        {
            "buffer" : 0,
            "byteLength" : 5184,
            "byteOffset" : 37568
        },
        {
            "buffer" : 0,
            "byteLength" : 56328,
            "byteOffset" : 42752
        },
        {
            "buffer" : 0,
            "byteLength" : 56328,
            "byteOffset" : 99080
        },
        {
            "buffer" : 0,
            "byteLength" : 37552,
            "byteOffset" : 155408
        },
        {
            "buffer" : 0,
            "byteLength" : 14952,
            "byteOffset" : 192960
        },
        {
            "buffer" : 0,
            "byteLength" : 84180,
            "byteOffset" : 207912
        },
        {
            "buffer" : 0,
            "byteLength" : 84180,
            "byteOffset" : 292092
        },
        {
            "buffer" : 0,
            "byteLength" : 56120,
            "byteOffset" : 376272
        },
        {
            "buffer" : 0,
            "byteLength" : 43452,
            "byteOffset" : 432392
        },
        {
            "buffer" : 0,
            "byteLength" : 83016,
            "byteOffset" : 475844
        },
        {
            "buffer" : 0,
            "byteLength" : 83016,
            "byteOffset" : 558860
        },
        {
            "buffer" : 0,
            "byteLength" : 55344,
            "byteOffset" : 641876
        },
        {
            "buffer" : 0,
            "byteLength" : 54240,
            "byteOffset" : 697220
        },
        {
            "buffer" : 0,
            "byteLength" : 1560,
            "byteOffset" : 751460
        },
        {
            "buffer" : 0,
            "byteLength" : 1560,
            "byteOffset" : 753020
        },
        {
            "buffer" : 0,
            "byteLength" : 1040,
            "byteOffset" : 754580
        },
        {
            "buffer" : 0,
            "byteLength" : 384,
            "byteOffset" : 755620
        },
        {
            "buffer" : 0,
            "byteLength" : 216,
            "byteOffset" : 756004
        },
        {
            "buffer" : 0,
            "byteLength" : 216,
            "byteOffset" : 756220
        },
        {
            "buffer" : 0,
            "byteLength" : 144,
            "byteOffset" : 756436
        },
        {
            "buffer" : 0,
            "byteLength" : 48,
            "byteOffset" : 756580
        },
        {
            "buffer" : 0,
            "byteLength" : 14256,
            "byteOffset" : 756628
        },
        {
            "buffer" : 0,
            "byteLength" : 14256,
            "byteOffset" : 770884
        },
        {
            "buffer" : 0,
            "byteLength" : 9504,
            "byteOffset" : 785140
        },
        {
            "buffer" : 0,
            "byteLength" : 11424,
            "byteOffset" : 794644
        },
        {
            "buffer" : 0,
            "byteLength" : 216,
            "byteOffset" : 806068
        },
        {
            "buffer" : 0,
            "byteLength" : 216,
            "byteOffset" : 806284
        },
        {
            "buffer" : 0,
            "byteLength" : 144,
            "byteOffset" : 806500
        },
        {
            "buffer" : 0,
            "byteLength" : 48,
            "byteOffset" : 806644
        },
        {
            "buffer" : 0,
            "byteLength" : 7116,
            "byteOffset" : 806692
        },
        {
            "buffer" : 0,
            "byteLength" : 7116,
            "byteOffset" : 813808
        },
        {
            "buffer" : 0,
            "byteLength" : 4744,
            "byteOffset" : 820924
        },
        {
            "buffer" : 0,
            "byteLength" : 3048,
            "byteOffset" : 825668
        },
        {
            "buffer" : 0,
            "byteLength" : 4320,
            "byteOffset" : 828716
        },
        {
            "buffer" : 0,
            "byteLength" : 4320,
            "byteOffset" : 833036
        },
        {
            "buffer" : 0,
            "byteLength" : 2880,
            "byteOffset" : 837356
        },
        {
            "buffer" : 0,
            "byteLength" : 2340,
            "byteOffset" : 840236
        }
    ],
    "buffers" : [
        {
            "byteLength" : 842576,
            "uri" : "data:application/octet-stream;base64,"
        }
    ]
}
